<svg width="31" height="34" viewBox="0 0 31 34" fill="none" xmlns="http://www.w3.org/2000/svg">
<path d="M8.33333 10.3334C7.89131 10.3334 7.46738 10.509 7.15482 10.8215C6.84226 11.1341 6.66667 11.558 6.66667 12C6.66667 12.4421 6.84226 12.866 7.15482 13.1786C7.46738 13.4911 7.89131 13.6667 8.33333 13.6667H10C10.442 13.6667 10.8659 13.4911 11.1785 13.1786C11.4911 12.866 11.6667 12.4421 11.6667 12C11.6667 11.558 11.4911 11.1341 11.1785 10.8215C10.8659 10.509 10.442 10.3334 10 10.3334H8.33333ZM16.6667 30.3334H5C4.55797 30.3334 4.13405 30.1578 3.82149 29.8452C3.50893 29.5327 3.33333 29.1087 3.33333 28.6667V5.33337C3.33333 4.89135 3.50893 4.46742 3.82149 4.15486C4.13405 3.8423 4.55797 3.66671 5 3.66671H13.3333V8.66671C13.3333 9.99279 13.8601 11.2646 14.7978 12.2022C15.7355 13.1399 17.0072 13.6667 18.3333 13.6667H23.3333V17C23.3333 17.4421 23.5089 17.866 23.8215 18.1786C24.134 18.4911 24.558 18.6667 25 18.6667C25.442 18.6667 25.866 18.4911 26.1785 18.1786C26.4911 17.866 26.6667 17.4421 26.6667 17V12C26.6667 12 26.6667 12 26.6667 11.9C26.6493 11.7469 26.6158 11.5961 26.5667 11.45V11.3C26.4865 11.1287 26.3796 10.9711 26.25 10.8334L16.25 0.833374C16.1122 0.703734 15.9547 0.596842 15.7833 0.516707C15.7282 0.507056 15.6718 0.507056 15.6167 0.516707C15.4546 0.430046 15.2804 0.368244 15.1 0.333374H5C3.67392 0.333374 2.40215 0.860158 1.46447 1.79784C0.526784 2.73552 0 4.00729 0 5.33337V28.6667C0 29.9928 0.526784 31.2646 1.46447 32.2022C2.40215 33.1399 3.67392 33.6667 5 33.6667H16.6667C17.1087 33.6667 17.5326 33.4911 17.8452 33.1786C18.1577 32.866 18.3333 32.4421 18.3333 32C18.3333 31.558 18.1577 31.1341 17.8452 30.8215C17.5326 30.509 17.1087 30.3334 16.6667 30.3334ZM16.6667 6.01671L20.9833 10.3334H18.3333C17.8913 10.3334 17.4674 10.1578 17.1548 9.84522C16.8423 9.53266 16.6667 9.10874 16.6667 8.66671V6.01671ZM18.3333 17H8.33333C7.89131 17 7.46738 17.1756 7.15482 17.4882C6.84226 17.8008 6.66667 18.2247 6.66667 18.6667C6.66667 19.1087 6.84226 19.5327 7.15482 19.8452C7.46738 20.1578 7.89131 20.3334 8.33333 20.3334H18.3333C18.7754 20.3334 19.1993 20.1578 19.5118 19.8452C19.8244 19.5327 20 19.1087 20 18.6667C20 18.2247 19.8244 17.8008 19.5118 17.4882C19.1993 17.1756 18.7754 17 18.3333 17ZM29.5167 27.4834C29.3617 27.3272 29.1774 27.2032 28.9743 27.1186C28.7712 27.0339 28.5534 26.9904 28.3333 26.9904C28.1133 26.9904 27.8955 27.0339 27.6924 27.1186C27.4893 27.2032 27.3049 27.3272 27.15 27.4834L26.6667 27.9834V23.6667C26.6667 23.2247 26.4911 22.8008 26.1785 22.4882C25.866 22.1756 25.442 22 25 22C24.558 22 24.134 22.1756 23.8215 22.4882C23.5089 22.8008 23.3333 23.2247 23.3333 23.6667V27.9834L22.85 27.4834C22.5362 27.1695 22.1105 26.9932 21.6667 26.9932C21.2228 26.9932 20.7972 27.1695 20.4833 27.4834C20.1695 27.7972 19.9932 28.2229 19.9932 28.6667C19.9932 29.1105 20.1695 29.5362 20.4833 29.85L23.8167 33.1834C23.9752 33.3351 24.1621 33.454 24.3667 33.5334C24.5662 33.6215 24.7819 33.6671 25 33.6671C25.2181 33.6671 25.4338 33.6215 25.6333 33.5334C25.8379 33.454 26.0248 33.3351 26.1833 33.1834L29.5167 29.85C29.6729 29.6951 29.7969 29.5108 29.8815 29.3077C29.9661 29.1046 30.0097 28.8867 30.0097 28.6667C30.0097 28.4467 29.9661 28.2288 29.8815 28.0257C29.7969 27.8226 29.6729 27.6383 29.5167 27.4834ZM15 27C15.442 27 15.8659 26.8244 16.1785 26.5119C16.4911 26.1993 16.6667 25.7754 16.6667 25.3334C16.6667 24.8913 16.4911 24.4674 16.1785 24.1549C15.8659 23.8423 15.442 23.6667 15 23.6667H8.33333C7.89131 23.6667 7.46738 23.8423 7.15482 24.1549C6.84226 24.4674 6.66667 24.8913 6.66667 25.3334C6.66667 25.7754 6.84226 26.1993 7.15482 26.5119C7.46738 26.8244 7.89131 27 8.33333 27H15Z" fill="#007AFF"/>
</svg>
