<svg width="48" height="42" viewBox="0 0 48 42" fill="none" xmlns="http://www.w3.org/2000/svg">
<path d="M19.0099 36H29.0099V38H19.0099V36Z" fill="#0A5597"/>
<path d="M21.0099 40H27.0099V42H21.0099V40Z" fill="#0A5597"/>
<path d="M24.0099 14C21.3578 14 18.8142 15.0536 16.9389 16.9289C15.0635 18.8043 14.0099 21.3478 14.0099 24C13.9423 25.4533 14.2207 26.902 14.8222 28.2267C15.4238 29.5514 16.3312 30.7144 17.4699 31.62C18.4699 32.55 19.0099 33.08 19.0099 34H21.0099C21.0099 32.16 19.8999 31.13 18.8199 30.14C17.8853 29.4243 17.1404 28.4903 16.6505 27.4198C16.1606 26.3494 15.9407 25.1752 16.0099 24C16.0099 21.8783 16.8528 19.8434 18.3531 18.3431C19.8534 16.8429 21.8882 16 24.0099 16C26.1317 16 28.1665 16.8429 29.6668 18.3431C31.1671 19.8434 32.0099 21.8783 32.0099 24C32.078 25.176 31.8566 26.3508 31.3649 27.4213C30.8732 28.4918 30.1264 29.4253 29.1899 30.14C28.1199 31.14 27.0099 32.14 27.0099 34H29.0099C29.0099 33.08 29.5399 32.55 30.5499 31.61C31.6879 30.706 32.5949 29.5447 33.1964 28.2217C33.798 26.8987 34.0768 25.4518 34.0099 24C34.0099 22.6868 33.7513 21.3864 33.2487 20.1732C32.7462 18.9599 32.0096 17.8575 31.081 16.9289C30.1524 16.0003 29.05 15.2638 27.8368 14.7612C26.6235 14.2587 25.3232 14 24.0099 14Z" fill="#0A5597"/>
<path fill-rule="evenodd" clip-rule="evenodd" d="M25 0V10H23V8.74228e-08L25 0Z" fill="#0A5597"/>
<path fill-rule="evenodd" clip-rule="evenodd" d="M39.3 5.12002L34 13.6L32.304 12.54L37.604 4.06002L39.3 5.12002Z" fill="#0A5597"/>
<path fill-rule="evenodd" clip-rule="evenodd" d="M8.55704 4.93975L13.557 13.6L15.2891 12.6L10.2891 3.93975L8.55704 4.93975Z" fill="#0A5597"/>
<path fill-rule="evenodd" clip-rule="evenodd" d="M47.7316 19.0635L38 21.3646L37.5398 19.4183L47.2714 17.1171L47.7316 19.0635Z" fill="#0A5597"/>
<path fill-rule="evenodd" clip-rule="evenodd" d="M0.340744 18.7765L10 21.3646L10.5176 19.4328L0.858382 16.8446L0.340744 18.7765Z" fill="#0A5597"/>
<path fill-rule="evenodd" clip-rule="evenodd" d="M45.6603 34L37 29L38 27.2679L46.6603 32.2679L45.6603 34Z" fill="#0A5597"/>
<path fill-rule="evenodd" clip-rule="evenodd" d="M2.33975 34L11 29L10 27.2679L1.33975 32.2679L2.33975 34Z" fill="#0A5597"/>
</svg>
