<svg width="96" height="62" viewBox="0 0 96 62" fill="none" xmlns="http://www.w3.org/2000/svg">
<g clip-path="url(#clip0_1668_14170)">
<path d="M1 61.0282V50.9536H3.27588L7.82763 58.3313V50.9536H9.8619V61.0282H7.6094L3.02647 53.6428V60.9972L1 61.0282Z" fill="white"/>
<path d="M11.9117 61.0282V50.9536H13.946V54.999H17.8431V50.9536H19.8539V61.0282H17.8431V56.7891H13.946V61.0282H11.9117Z" fill="white"/>
<path d="M21.14 61.0282L25.6839 50.9536H27.2428L31.8569 61.0282H29.6122L28.4275 58.4011H24.5304L23.3223 61.0282H21.14ZM25.302 56.5954H27.6402L26.4867 53.542L25.302 56.5954Z" fill="white"/>
<path d="M24.6863 48.3653L26.1594 47.4818L28.3729 49.551L27.5935 49.9617L24.6863 48.3653Z" fill="white"/>
<path d="M45.1302 51.6124V51.5271C45.3593 51.5032 45.5803 51.4291 45.7771 51.3101C45.865 51.25 45.9361 51.1687 45.9838 51.0738C46.0315 50.979 46.0542 50.8736 46.0499 50.7677V50.5429H45.1302V49.179H47.4061V50.5197C47.4166 50.7902 47.3519 51.0583 47.219 51.2946C47.0548 51.5577 46.8496 51.7931 46.6111 51.9921C46.5233 52.0692 46.4295 52.1392 46.3305 52.2013C46.2177 52.2692 46.0974 52.3238 45.972 52.3641C46.907 53.3598 47.4205 54.6752 47.4061 56.0374C47.4188 56.7249 47.2921 57.4078 47.0336 58.0456C46.7752 58.6833 46.3903 59.2628 45.9018 59.7495C45.4335 60.2333 44.8719 60.6182 44.2505 60.881C43.629 61.1439 42.9607 61.2794 42.2854 61.2794C41.6101 61.2794 40.9417 61.1439 40.3203 60.881C39.6989 60.6182 39.1372 60.2333 38.6689 59.7495C38.1748 59.2646 37.7853 58.6846 37.524 58.0451C37.2627 57.4056 37.1351 56.7198 37.1491 56.0297C37.1349 55.3371 37.2585 54.6485 37.5126 54.0036C37.7667 53.3586 38.1464 52.7698 38.6299 52.2711C39.2767 51.5939 40.1028 51.1123 41.013 50.8819C41.9232 50.6515 42.8804 50.6818 43.7741 50.9691C44.2547 51.1179 44.7114 51.3345 45.1302 51.6124ZM42.3088 52.5268C41.8702 52.5205 41.4353 52.6064 41.0324 52.7786C40.6294 52.9509 40.2676 53.2057 39.9705 53.5265C39.6553 53.845 39.4074 54.223 39.2414 54.6383C39.0754 55.0536 38.9947 55.4977 39.0041 55.9444C38.9964 56.3963 39.0784 56.8452 39.2456 57.2655C39.4128 57.6857 39.6618 58.069 39.9783 58.3933C40.2709 58.7232 40.6307 58.9873 41.0338 59.1683C41.437 59.3492 41.8742 59.4428 42.3166 59.4428C42.7589 59.4428 43.1961 59.3492 43.5993 59.1683C44.0024 58.9873 44.3622 58.7232 44.6548 58.3933C44.9739 58.0717 45.2256 57.6903 45.3955 57.2713C45.5655 56.8523 45.6501 56.4039 45.6446 55.9522C45.654 55.5054 45.5733 55.0613 45.4073 54.6461C45.2413 54.2308 44.9934 53.8528 44.6782 53.5343C44.3783 53.2081 44.0117 52.9495 43.6031 52.7757C43.1944 52.602 42.7531 52.5171 42.3088 52.5268Z" fill="white"/>
<path d="M41.6696 47.908H40.3447V47.7453C40.3444 47.5965 40.3736 47.449 40.4304 47.3113C40.4806 47.2241 40.538 47.1412 40.6019 47.0633C40.6865 46.9669 40.7777 46.8763 40.8746 46.7921C41.0731 46.6127 41.3147 46.4872 41.5761 46.4279C41.8877 46.3556 42.2071 46.3217 42.527 46.3271C43.0509 46.3131 43.5669 46.4563 44.0079 46.7378C44.1865 46.8565 44.3423 47.0061 44.4677 47.1796C44.5589 47.3373 44.6048 47.5169 44.6002 47.6988C44.5776 47.9636 44.4868 48.2181 44.3367 48.438C44.1865 48.6578 43.982 48.8356 43.7429 48.9542L43.1505 49.2177C42.9557 49.3262 42.8544 49.4502 42.8544 49.5897V50.0237H41.7008V49.148C41.7008 49.086 41.7008 49.0162 41.7008 48.9542C41.7674 48.865 41.8524 48.791 41.9502 48.7373L42.2932 48.5745C42.4962 48.4769 42.6894 48.3602 42.8699 48.2258C43.0726 48.063 43.1817 47.9158 43.1817 47.7763C43.1859 47.6913 43.1729 47.6064 43.1434 47.5265C43.1139 47.4466 43.0687 47.3734 43.0102 47.3113C42.8507 47.182 42.6461 47.1207 42.4413 47.1408C42.3174 47.1358 42.1938 47.1551 42.0774 47.1977C41.961 47.2402 41.8542 47.3052 41.7632 47.3888C41.7199 47.4526 41.6883 47.5234 41.6696 47.5981C41.6635 47.6754 41.6635 47.7532 41.6696 47.8305V47.908Z" fill="white"/>
<path d="M53.6414 61.0282V50.9536H55.9173L60.469 58.2926V50.9149H62.5033V60.9895H60.2352L55.6756 53.6428V60.9972L53.6414 61.0282Z" fill="white"/>
<path d="M75.1219 53.8908H72.7058C72.3795 53.4641 71.9507 53.1256 71.4587 52.9066C70.7833 52.6074 70.0385 52.4976 69.3049 52.5892C68.5712 52.6807 67.8768 52.97 67.2967 53.4258C66.9158 53.737 66.6096 54.1289 66.4003 54.5727C66.1778 55.0046 66.0603 55.4824 66.0574 55.9677C66.0802 56.8484 66.4529 57.6843 67.094 58.2926C67.4687 58.6566 67.9125 58.9428 68.3996 59.1344C68.8867 59.326 69.4073 59.4192 69.9311 59.4085C70.5822 59.4062 71.2216 59.2352 71.7861 58.9125C72.3471 58.6116 72.8096 58.1571 73.1189 57.6028H68.5359V55.8282H75.6597V56.0452C75.6684 56.7493 75.5189 57.4466 75.2223 58.086C74.9257 58.7255 74.4893 59.2912 73.945 59.7418C72.8242 60.733 71.3684 61.2672 69.8687 61.2374C68.3521 61.267 66.88 60.7275 65.7456 59.7263C65.1963 59.2705 64.756 58.6988 64.4567 58.0526C64.1574 57.4065 64.0067 56.7022 64.0153 55.9909C64.0078 55.2779 64.1574 54.572 64.4536 53.9226C64.7499 53.2733 65.1855 52.6963 65.73 52.2323C66.8483 51.2106 68.319 50.6556 69.8375 50.6824C70.9586 50.679 72.0598 50.9762 73.0253 51.5426C73.9667 52.0726 74.7042 52.8986 75.1219 53.8908Z" fill="white"/>
<path d="M76.1819 61.0282L80.7337 50.9536H82.2925L86.9066 61.0282H84.6541L83.4772 58.4011H79.5802L78.3721 61.0282H76.1819ZM80.3518 56.5954H82.69L81.5443 53.542L80.3518 56.5954Z" fill="white"/>
<path d="M89.0735 61.0276V57.5557L85.496 50.9143H87.7719L90.1101 55.2851L92.4484 50.9143H94.6619L91.0922 57.5557V61.0276H89.0735Z" fill="white"/>
<path d="M53.8573 14.8945V40.1894H27.5132C26.9001 40.187 26.3095 39.9593 25.8549 39.5502C25.4003 39.1411 25.1137 38.5794 25.0503 37.973V14.8945H53.8573Z" fill="white"/>
<path d="M69.4765 17.3059V37.8425C69.4765 38.2535 69.3122 38.6478 69.0199 38.9384C68.7276 39.2291 68.3311 39.3924 67.9176 39.3924H29.8746C29.4946 39.3435 29.136 39.1897 28.8395 38.9484C28.543 38.7071 28.3204 38.388 28.197 38.0273C28.0737 37.6666 28.0545 37.2787 28.1416 36.9077C28.2287 36.5367 28.4187 36.1974 28.6899 35.9283C28.8793 35.7377 29.1051 35.5867 29.3541 35.4842C29.6031 35.3817 29.8701 35.3298 30.1396 35.3316H50.8407C51.3475 35.338 51.8384 35.1553 52.2164 34.8196C52.5944 34.4839 52.8322 34.0196 52.8828 33.5182C52.9056 33.2477 52.8714 32.9755 52.7824 32.7189C52.6934 32.4623 52.5517 32.227 52.3661 32.0279C52.1806 31.8289 51.9554 31.6704 51.7048 31.5627C51.4543 31.4551 51.1838 31.4005 50.9109 31.4025H34.0912C33.6822 31.4083 33.286 31.2608 32.9813 30.9895C32.6766 30.7181 32.4858 30.3427 32.4467 29.9378C32.4278 29.7115 32.4593 29.4838 32.5387 29.2709C32.6182 29.058 32.7438 28.865 32.9065 28.7056C33.0534 28.5587 33.2284 28.4426 33.4211 28.364C33.6139 28.2855 33.8206 28.2462 34.0289 28.2484H43.5143C44.0239 28.2528 44.5167 28.0677 44.896 27.7293C45.2753 27.3909 45.5136 26.9237 45.5641 26.4195C45.5822 26.1504 45.5447 25.8805 45.454 25.6264C45.3632 25.3722 45.2211 25.1393 45.0363 24.9418C44.8516 24.7443 44.6282 24.5865 44.3799 24.4782C44.1315 24.3698 43.8635 24.3131 43.5922 24.3116H36.9361C36.4501 24.3158 35.9821 24.1294 35.6335 23.7929C35.2848 23.4563 35.0835 22.9967 35.0733 22.5136C35.0815 22.0484 35.2731 21.6049 35.6069 21.2788C35.9408 20.9526 36.3901 20.7699 36.8581 20.77H46.0006C46.5099 20.776 47.0027 20.5912 47.3811 20.2523C47.7595 19.9134 47.9957 19.4453 48.0427 18.9411C48.0608 18.6724 48.0233 18.4028 47.9324 18.1491C47.8416 17.8954 47.6993 17.6629 47.5145 17.466C47.3297 17.2692 47.1062 17.1121 46.8578 17.0046C46.6095 16.8971 46.3416 16.8414 46.0708 16.8409H27.5831C27.2459 16.8528 26.9128 16.7637 26.6271 16.585C26.3414 16.4063 26.1163 16.1464 25.981 15.839C25.8457 15.5315 25.8065 15.1908 25.8684 14.8609C25.9304 14.531 26.0906 14.2272 26.3283 13.989C26.6425 13.6765 27.0686 13.5009 27.513 13.5008H39.9368C40.2284 13.5003 40.5082 13.3863 40.7162 13.1831L52.6802 1.29508C52.9705 1.01802 53.3572 0.863281 53.7596 0.863281C54.162 0.863281 54.5488 1.01802 54.8391 1.29508L65.8444 12.2221L68.4087 14.7717C68.7454 15.1037 69.013 15.4983 69.1962 15.9332C69.3794 16.368 69.4746 16.8344 69.4765 17.3059V17.3059Z" fill="#1D5795"/>
<path fill-rule="evenodd" clip-rule="evenodd" d="M29.8235 40.1916L29.7727 40.1851C29.2453 40.1172 28.7471 39.9037 28.3347 39.5681C27.9224 39.2325 27.6123 38.7883 27.4403 38.2854C27.2683 37.7824 27.2415 37.2415 27.363 36.7241C27.4842 36.2077 27.7482 35.7359 28.1245 35.3618C28.3887 35.0963 28.7033 34.8862 29.0498 34.7436C29.3963 34.601 29.7678 34.5287 30.1426 34.5308H50.851C51.1591 34.5347 51.4568 34.4237 51.6854 34.2207C51.9121 34.0193 52.0545 33.7422 52.0863 33.4437C52.0986 33.2869 52.0784 33.1292 52.0267 32.9802C51.9744 32.8292 51.8908 32.6903 51.7811 32.5726C51.6714 32.4549 51.5379 32.3609 51.3891 32.297C51.2403 32.233 51.0795 32.2005 50.917 32.2017L50.9111 32.2018L34.0966 32.2017C33.4903 32.2087 32.9025 31.9896 32.4494 31.5861C31.9948 31.1812 31.7091 30.6201 31.6506 30.014L31.6495 30.0034C31.6209 29.6595 31.6688 29.3137 31.7894 28.9904C31.9096 28.6685 32.099 28.377 32.344 28.1362C32.5658 27.9151 32.8295 27.7405 33.1195 27.6224C33.4094 27.5043 33.7199 27.4449 34.0329 27.4476H43.5215C43.8328 27.4503 44.1331 27.3372 44.3636 27.1316C44.5906 26.929 44.7337 26.6512 44.7669 26.352C44.7756 26.1968 44.7532 26.0414 44.7008 25.8947C44.6469 25.7439 44.5624 25.6053 44.4523 25.4875C44.3422 25.3698 44.2088 25.2755 44.0601 25.2106C43.9119 25.1459 43.7519 25.1119 43.5898 25.1108H36.9395C36.2459 25.1158 35.5772 24.8494 35.0781 24.3677C34.5779 23.885 34.2884 23.2247 34.2737 22.5298L34.2733 22.5143L34.2736 22.4988C34.2855 21.8223 34.5641 21.1785 35.0481 20.7057C35.5319 20.2331 36.182 19.9691 36.8583 19.9692C36.8584 19.9692 36.8583 19.9692 36.8583 19.9692H46.0103C46.3199 19.9729 46.6188 19.8605 46.8476 19.6556C47.0737 19.4531 47.2149 19.1751 47.2453 18.8763C47.2544 18.7208 47.2321 18.565 47.1794 18.418C47.1257 18.2678 47.0413 18.1298 46.9315 18.0128C46.8216 17.8958 46.6885 17.8022 46.5401 17.7379C46.3921 17.6739 46.2323 17.6405 46.0705 17.6401C46.0702 17.6401 46.0708 17.6401 46.0705 17.6401H27.5961C27.1048 17.6544 26.62 17.5232 26.2031 17.2625C25.7818 16.999 25.4491 16.6152 25.249 16.1604C25.0488 15.7055 24.9907 15.201 25.0824 14.7125C25.1741 14.2241 25.4112 13.7749 25.7622 13.4231L25.7643 13.421C26.2288 12.959 26.8579 12.7002 27.513 12.7L39.9357 12.7C39.9359 12.7 39.9356 12.7 39.9357 12.7C40.0185 12.6998 40.0975 12.6676 40.1557 12.6117C40.1562 12.6111 40.1568 12.6106 40.1573 12.6101L52.1222 0.721146L52.128 0.715589C52.5676 0.296077 53.1523 0.0625 53.7598 0.0625C54.3673 0.0625 54.9521 0.296068 55.3917 0.715589L55.3974 0.72104L66.4083 11.6536L68.9705 14.2013C68.9709 14.2016 68.9713 14.202 68.9716 14.2024C69.3827 14.6079 69.7096 15.0901 69.9336 15.6217C70.1578 16.1539 70.2744 16.7248 70.2766 17.302L69.4767 17.3051C69.4748 16.8337 69.3796 16.3672 69.1964 15.9324C69.0132 15.4976 68.7456 15.1029 68.4089 14.771L54.8393 1.2943C54.549 1.01724 54.1622 0.8625 53.7598 0.8625C53.3574 0.8625 52.9707 1.01724 52.6804 1.2943L40.7164 13.1823C40.5084 13.3855 40.2286 13.4996 39.937 13.5H27.5132C27.0688 13.5001 26.6427 13.6757 26.3285 13.9882C26.0908 14.2264 25.9306 14.5302 25.8686 14.8601C25.8067 15.19 25.8459 15.5308 25.9812 15.8382C26.1165 16.1456 26.3416 16.4055 26.6273 16.5842C26.9129 16.7629 27.246 16.852 27.5833 16.8401H46.071C46.3418 16.8406 46.6097 16.8963 46.858 17.0038C47.1064 17.1113 47.3299 17.2684 47.5147 17.4652C47.6995 17.6621 47.8418 17.8946 47.9326 18.1483C48.0235 18.402 48.061 18.6716 48.0429 18.9403C47.9959 19.4445 47.7597 19.9126 47.3813 20.2515C47.0029 20.5904 46.51 20.7752 46.0008 20.7692H36.8583C36.3903 20.7691 35.941 20.9518 35.6071 21.278C35.2733 21.6041 35.0817 22.0476 35.0735 22.5129C35.0837 22.9959 35.285 23.4555 35.6337 23.7921C35.9823 24.1286 36.4503 24.315 36.9363 24.3108H43.5924C43.8637 24.3123 44.1317 24.369 44.3801 24.4774C44.6284 24.5858 44.8518 24.7436 45.0365 24.941C45.2213 25.1385 45.3634 25.3715 45.4542 25.6256C45.5449 25.8797 45.5824 26.1496 45.5643 26.4187C45.5138 26.9229 45.2755 27.3901 44.8962 27.7285C44.5169 28.0669 44.0241 28.2521 43.5145 28.2476H34.0291C33.8208 28.2454 33.6141 28.2847 33.4213 28.3633C33.2286 28.4418 33.0536 28.5579 32.9067 28.7049C32.7439 28.8642 32.6184 29.0572 32.5389 29.2701C32.4595 29.483 32.428 29.7107 32.4469 29.9371C32.486 30.3419 32.6768 30.7173 32.9815 30.9887C33.2862 31.26 33.6824 31.4075 34.0914 31.4017H50.9111C51.184 31.3997 51.4544 31.4543 51.705 31.562C51.9556 31.6696 52.1808 31.8281 52.3663 32.0272C52.5519 32.2262 52.6936 32.4616 52.7826 32.7181C52.8716 32.9747 52.9058 33.2469 52.883 33.5174C52.8324 34.0188 52.5946 34.4832 52.2166 34.8189C51.8386 35.1546 51.3477 35.3372 50.8409 35.3308H30.1398C29.8703 35.329 29.6032 35.3809 29.3543 35.4834C29.1053 35.5859 28.8795 35.7369 28.6901 35.9276C28.4189 36.1967 28.2289 36.5359 28.1418 36.907C28.0547 37.278 28.0739 37.6658 28.1972 38.0265C28.3206 38.3872 28.5432 38.7063 28.8397 38.9476C29.1362 39.1889 29.4948 39.3427 29.8748 39.3916H67.9178C68.3313 39.3916 68.7277 39.2283 69.0201 38.9377C69.3124 38.647 69.4767 38.2528 69.4767 37.8417V17.3051H70.2767V37.8417C70.2767 38.4664 70.027 39.0646 69.5842 39.505C69.1414 39.9452 68.542 40.1916 67.9178 40.1916H29.8235Z" fill="white"/>
<path d="M29.5476 24.1174C29.1342 24.1174 28.7377 23.9541 28.4453 23.6635C28.153 23.3728 27.9888 22.9786 27.9888 22.5675C27.9888 22.1564 28.153 21.7622 28.4453 21.4715C28.7377 21.1809 29.1342 21.0176 29.5476 21.0176H31.2857C31.6991 21.0176 32.0956 21.1809 32.3879 21.4715C32.6803 21.7622 32.8445 22.1564 32.8445 22.5675C32.8445 22.9786 32.6803 23.3728 32.3879 23.6635C32.0956 23.9541 31.6991 24.1174 31.2857 24.1174H29.5476Z" fill="#1D5795"/>
<path d="M50.0849 28.0223H48.3391C47.8691 28.0223 47.4183 27.8372 47.0853 27.5075C46.7522 27.1778 46.5641 26.7304 46.562 26.2631V26.2631C46.562 26.0314 46.608 25.802 46.6974 25.5881C46.7868 25.3742 46.9178 25.1799 47.083 25.0164C47.2481 24.853 47.444 24.7236 47.6596 24.6356C47.8752 24.5477 48.1061 24.5029 48.3391 24.5039H50.1083C50.5776 24.5039 51.0276 24.6893 51.3594 25.0192C51.6912 25.3491 51.8776 25.7965 51.8776 26.2631C51.8776 26.4961 51.8311 26.7268 51.7407 26.9417C51.6503 27.1567 51.5179 27.3517 51.3512 27.5153C51.1844 27.679 50.9866 27.8081 50.7692 27.8951C50.5518 27.9821 50.3192 28.0254 50.0849 28.0223V28.0223Z" fill="#FF6701"/>
<path d="M68.4868 14.4299L66.0629 12.0198L64.2624 10.2451L62.8673 8.85017C62.688 8.78817 62.4932 8.72616 62.2827 8.67191C61.6964 8.5105 61.0906 8.42967 60.4823 8.43168V8.43168C58.8727 8.4588 57.3086 8.96641 55.9929 9.88862C54.1934 11.0623 52.8898 12.852 52.3297 14.9181C51.9601 16.2092 51.8411 17.5584 51.9789 18.8937C52.2293 20.8824 52.8786 22.8009 53.8885 24.5355C55.3626 27.1948 57.2754 29.5892 59.547 31.6187C64.1767 35.85 66.9046 38.1749 68.2452 39.2831L68.3232 39.3528L68.3699 39.3916C68.5662 39.3206 68.7483 39.2157 68.9077 39.0816L68.9779 39.0196C69.0024 39.0031 69.0236 38.982 69.0402 38.9576V38.9576C69.069 38.917 69.1002 38.8782 69.1337 38.8414C69.2535 38.6848 69.3457 38.5093 69.4065 38.3221C69.4619 38.1518 69.4908 37.9741 69.4923 37.7952V16.8711C69.4961 16.4182 69.4092 15.969 69.2366 15.5499C69.064 15.1308 68.8091 14.75 68.4868 14.4299V14.4299Z" fill="white"/>
<path d="M69.4768 16.8241V37.7482C69.4771 37.9943 69.4236 38.2375 69.32 38.461C69.2163 38.6845 69.0651 38.8829 68.8767 39.0424C67.653 38.035 64.8549 35.6713 59.9134 31.1455C52.8987 24.7133 52.5246 18.8003 52.5246 18.8003C52.5246 18.8003 51.7452 13.3135 56.2814 10.3299C60.6227 7.46253 63.982 9.99669 64.247 10.2059L66.024 11.9651L68.448 14.3752C68.7765 14.6935 69.0369 15.0745 69.2137 15.4953C69.3905 15.9161 69.48 16.3681 69.4768 16.8241V16.8241Z" fill="#EF8421"/>
</g>
<defs>
<clipPath id="clip0_1668_14170">
<rect width="96" height="61.2766" fill="white"/>
</clipPath>
</defs>
</svg>
