<?xml version="1.0" encoding="utf-8"?>
<!-- Generator: Adobe Illustrator 24.0.0, SVG Export Plug-In . SVG Version: 6.00 Build 0)  -->
<svg version="1.1" id="Layer_1" xmlns="http://www.w3.org/2000/svg" xmlns:xlink="http://www.w3.org/1999/xlink" x="0px" y="0px"
	 viewBox="0 0 46 41" style="enable-background:new 0 0 46 41;" xml:space="preserve">
<style type="text/css">
	.st0{fill:#FFFFFF;}
	.st1{fill:#1D5795;}
	.st2{fill-rule:evenodd;clip-rule:evenodd;fill:#FFFFFF;}
	.st3{fill:#FF6701;}
	.st4{fill:#EF8421;}
</style>
<g>
	<path class="st0" d="M29.2,15.3v25.3H2.9c-0.6,0-1.2-0.2-1.7-0.6c-0.5-0.4-0.7-1-0.8-1.6V15.3H29.2z"/>
	<path class="st1" d="M44.8,17.7v20.5c0,0.4-0.2,0.8-0.5,1.1c-0.3,0.3-0.7,0.5-1.1,0.5h-38c-0.4,0-0.7-0.2-1-0.4
		c-0.3-0.2-0.5-0.6-0.6-0.9c-0.1-0.4-0.1-0.7-0.1-1.1c0.1-0.4,0.3-0.7,0.5-1c0.2-0.2,0.4-0.3,0.7-0.4c0.2-0.1,0.5-0.2,0.8-0.2h20.7
		c0.5,0,1-0.2,1.4-0.5s0.6-0.8,0.7-1.3c0-0.3,0-0.5-0.1-0.8c-0.1-0.3-0.2-0.5-0.4-0.7c-0.2-0.2-0.4-0.4-0.7-0.5
		c-0.3-0.1-0.5-0.2-0.8-0.2H9.4c-0.4,0-0.8-0.1-1.1-0.4c-0.3-0.3-0.5-0.6-0.5-1.1c0-0.2,0-0.5,0.1-0.7c0.1-0.2,0.2-0.4,0.4-0.6
		c0.1-0.1,0.3-0.3,0.5-0.3c0.2-0.1,0.4-0.1,0.6-0.1h9.5c0.5,0,1-0.2,1.4-0.5s0.6-0.8,0.7-1.3c0-0.3,0-0.5-0.1-0.8
		c-0.1-0.3-0.2-0.5-0.4-0.7c-0.2-0.2-0.4-0.4-0.7-0.5c-0.2-0.1-0.5-0.2-0.8-0.2h-6.7c-0.5,0-1-0.2-1.3-0.5c-0.3-0.3-0.5-0.8-0.6-1.3
		c0-0.5,0.2-0.9,0.5-1.2c0.3-0.3,0.8-0.5,1.3-0.5h9.1c0.5,0,1-0.2,1.4-0.5s0.6-0.8,0.7-1.3c0-0.3,0-0.5-0.1-0.8
		c-0.1-0.3-0.2-0.5-0.4-0.7c-0.2-0.2-0.4-0.4-0.7-0.5c-0.2-0.1-0.5-0.2-0.8-0.2H2.9c-0.3,0-0.7-0.1-1-0.3c-0.3-0.2-0.5-0.4-0.6-0.7
		c-0.1-0.3-0.2-0.6-0.1-1c0.1-0.3,0.2-0.6,0.5-0.9C2,14,2.4,13.9,2.9,13.9h12.4c0.3,0,0.6-0.1,0.8-0.3L28,1.7
		c0.3-0.3,0.7-0.4,1.1-0.4c0.4,0,0.8,0.2,1.1,0.4l11,10.9l2.6,2.5c0.3,0.3,0.6,0.7,0.8,1.2C44.7,16.7,44.8,17.2,44.8,17.7L44.8,17.7
		z"/>
	<path class="st2" d="M5.2,40.6L5.2,40.6c-0.6-0.1-1.1-0.3-1.5-0.6c-0.4-0.3-0.7-0.8-0.9-1.3c-0.2-0.5-0.2-1-0.1-1.6
		c0.1-0.5,0.4-1,0.8-1.4c0.3-0.3,0.6-0.5,0.9-0.6c0.3-0.1,0.7-0.2,1.1-0.2h20.7c0.3,0,0.6-0.1,0.8-0.3c0.2-0.2,0.4-0.5,0.4-0.8
		c0-0.2,0-0.3-0.1-0.5c-0.1-0.2-0.1-0.3-0.2-0.4c-0.1-0.1-0.2-0.2-0.4-0.3c-0.1-0.1-0.3-0.1-0.5-0.1l0,0l-16.8,0
		c-0.6,0-1.2-0.2-1.6-0.6c-0.5-0.4-0.7-1-0.8-1.6l0,0c0-0.3,0-0.7,0.1-1c0.1-0.3,0.3-0.6,0.6-0.9c0.2-0.2,0.5-0.4,0.8-0.5
		c0.3-0.1,0.6-0.2,0.9-0.2h9.5c0.3,0,0.6-0.1,0.8-0.3c0.2-0.2,0.4-0.5,0.4-0.8c0-0.2,0-0.3-0.1-0.5c-0.1-0.2-0.1-0.3-0.2-0.4
		c-0.1-0.1-0.2-0.2-0.4-0.3c-0.1-0.1-0.3-0.1-0.5-0.1h-6.7c-0.7,0-1.4-0.3-1.9-0.7c-0.5-0.5-0.8-1.1-0.8-1.8l0,0l0,0
		c0-0.7,0.3-1.3,0.8-1.8c0.5-0.5,1.1-0.7,1.8-0.7c0,0,0,0,0,0h9.2c0.3,0,0.6-0.1,0.8-0.3c0.2-0.2,0.4-0.5,0.4-0.8
		c0-0.2,0-0.3-0.1-0.5c-0.1-0.2-0.1-0.3-0.2-0.4c-0.1-0.1-0.2-0.2-0.4-0.3C21.7,18,21.6,18,21.4,18c0,0,0,0,0,0H2.9
		c-0.5,0-1-0.1-1.4-0.4c-0.4-0.3-0.8-0.6-1-1.1c-0.2-0.5-0.3-1-0.2-1.4c0.1-0.5,0.3-0.9,0.7-1.3l0,0c0.5-0.5,1.1-0.7,1.7-0.7h12.4
		c0,0,0,0,0,0c0.1,0,0.2,0,0.2-0.1c0,0,0,0,0,0l12-11.9l0,0c0.4-0.4,1-0.7,1.6-0.7s1.2,0.2,1.6,0.7l0,0l11,10.9l2.6,2.5c0,0,0,0,0,0
		c0.4,0.4,0.7,0.9,1,1.4c0.2,0.5,0.3,1.1,0.3,1.7l-0.8,0c0-0.5-0.1-0.9-0.3-1.4c-0.2-0.4-0.5-0.8-0.8-1.2L30.2,1.7
		c-0.3-0.3-0.7-0.4-1.1-0.4S28.3,1.4,28,1.7l-12,11.9c-0.2,0.2-0.5,0.3-0.8,0.3H2.9c-0.4,0-0.9,0.2-1.2,0.5
		c-0.2,0.2-0.4,0.5-0.5,0.9c-0.1,0.3,0,0.7,0.1,1C1.5,16.5,1.7,16.8,2,17c0.3,0.2,0.6,0.3,1,0.3h18.5c0.3,0,0.5,0.1,0.8,0.2
		c0.2,0.1,0.5,0.3,0.7,0.5c0.2,0.2,0.3,0.4,0.4,0.7c0.1,0.3,0.1,0.5,0.1,0.8c0,0.5-0.3,1-0.7,1.3c-0.4,0.3-0.9,0.5-1.4,0.5h-9.1
		c-0.5,0-0.9,0.2-1.3,0.5c-0.3,0.3-0.5,0.8-0.5,1.2c0,0.5,0.2,0.9,0.6,1.3c0.3,0.3,0.8,0.5,1.3,0.5h6.7c0.3,0,0.5,0.1,0.8,0.2
		c0.2,0.1,0.5,0.3,0.7,0.5c0.2,0.2,0.3,0.4,0.4,0.7c0.1,0.3,0.1,0.5,0.1,0.8c-0.1,0.5-0.3,1-0.7,1.3c-0.4,0.3-0.9,0.5-1.4,0.5H9.4
		c-0.2,0-0.4,0-0.6,0.1c-0.2,0.1-0.4,0.2-0.5,0.3c-0.2,0.2-0.3,0.4-0.4,0.6c-0.1,0.2-0.1,0.4-0.1,0.7c0,0.4,0.2,0.8,0.5,1.1
		c0.3,0.3,0.7,0.4,1.1,0.4h16.8c0.3,0,0.5,0.1,0.8,0.2c0.3,0.1,0.5,0.3,0.7,0.5c0.2,0.2,0.3,0.4,0.4,0.7c0.1,0.3,0.1,0.5,0.1,0.8
		c-0.1,0.5-0.3,1-0.7,1.3c-0.4,0.3-0.9,0.5-1.4,0.5H5.5c-0.3,0-0.5,0.1-0.8,0.2C4.4,36,4.2,36.1,4,36.3c-0.3,0.3-0.5,0.6-0.5,1
		c-0.1,0.4-0.1,0.8,0.1,1.1c0.1,0.4,0.3,0.7,0.6,0.9c0.3,0.2,0.7,0.4,1,0.4h38c0.4,0,0.8-0.2,1.1-0.5c0.3-0.3,0.5-0.7,0.5-1.1V17.7
		h0.8v20.5c0,0.6-0.2,1.2-0.7,1.7c-0.4,0.4-1,0.7-1.7,0.7H5.2z"/>
	<path class="st1" d="M4.9,24.5c-0.4,0-0.8-0.2-1.1-0.5c-0.3-0.3-0.5-0.7-0.5-1.1c0-0.4,0.2-0.8,0.5-1.1c0.3-0.3,0.7-0.5,1.1-0.5
		h1.7c0.4,0,0.8,0.2,1.1,0.5c0.3,0.3,0.5,0.7,0.5,1.1c0,0.4-0.2,0.8-0.5,1.1c-0.3,0.3-0.7,0.5-1.1,0.5H4.9z"/>
	<path class="st3" d="M25.4,28.4h-1.7c-0.5,0-0.9-0.2-1.3-0.5c-0.3-0.3-0.5-0.8-0.5-1.2l0,0c0-0.2,0-0.5,0.1-0.7
		c0.1-0.2,0.2-0.4,0.4-0.6c0.2-0.2,0.4-0.3,0.6-0.4c0.2-0.1,0.4-0.1,0.7-0.1h1.8c0.5,0,0.9,0.2,1.3,0.5c0.3,0.3,0.5,0.8,0.5,1.2
		c0,0.2,0,0.5-0.1,0.7c-0.1,0.2-0.2,0.4-0.4,0.6c-0.2,0.2-0.4,0.3-0.6,0.4S25.7,28.4,25.4,28.4L25.4,28.4z"/>
	<path class="st0" d="M43.8,14.8l-2.4-2.4l-1.8-1.8l-1.4-1.4C38,9.2,37.8,9.1,37.6,9c-0.6-0.2-1.2-0.2-1.8-0.2l0,0
		c-1.6,0-3.2,0.5-4.5,1.5c-1.8,1.2-3.1,3-3.7,5c-0.4,1.3-0.5,2.6-0.4,4c0.3,2,0.9,3.9,1.9,5.6c1.5,2.7,3.4,5.1,5.7,7.1
		c4.6,4.2,7.4,6.6,8.7,7.7l0.1,0.1l0,0c0.2-0.1,0.4-0.2,0.5-0.3l0.1-0.1c0,0,0,0,0.1-0.1l0,0c0,0,0.1-0.1,0.1-0.1
		c0.1-0.2,0.2-0.3,0.3-0.5c0.1-0.2,0.1-0.3,0.1-0.5V17.2c0-0.5-0.1-0.9-0.3-1.3S44.2,15.1,43.8,14.8L43.8,14.8z"/>
	<path class="st4" d="M44.8,17.2v20.9c0,0.2-0.1,0.5-0.2,0.7c-0.1,0.2-0.3,0.4-0.4,0.6c-1.2-1-4-3.4-9-7.9c-7-6.4-7.4-12.3-7.4-12.3
		s-0.8-5.5,3.8-8.5c4.3-2.9,7.7-0.3,8-0.1l1.8,1.8l2.4,2.4c0.3,0.3,0.6,0.7,0.8,1.1C44.7,16.3,44.8,16.7,44.8,17.2L44.8,17.2z"/>
</g>
</svg>
